<svg version="1.1" id="Layer_1" xmlns="http://www.w3.org/2000/svg" 
	 width="100%" viewBox="52 92 200 130" xml:space="preserve">
<g stroke="none">
    <path fill="#F9F9F9" d="
    M55.364803,196.810654 
    C52.692661,192.972717 55.431648,190.444778 57.343922,188.244507 
    C62.474033,182.341797 67.982849,176.767548 73.360664,171.081207 
    C75.077583,169.265793 76.822578,167.474335 78.611046,165.729660 
    C85.318954,159.185959 89.833328,152.310394 91.153358,142.077515 
    C93.889008,120.870712 106.956383,106.348999 127.061462,99.266586 
    C147.034683,92.230637 165.429138,96.379463 181.763779,109.810669 
    C184.201675,111.815247 186.679871,113.802574 189.317703,115.524826 
    C193.347931,118.156174 197.697174,119.289986 202.619919,118.228485 
    C213.519775,115.878105 224.453262,113.674210 235.407272,111.590523 
    C238.493484,111.003464 241.720230,110.704666 244.841248,110.907799 
    C246.958679,111.045593 249.004120,112.289673 251.081757,113.039001 
    C249.956909,114.764259 249.148575,116.861580 247.644501,118.141037 
    C243.974701,121.262825 239.992020,124.018410 236.118637,126.899017 
    C225.436996,134.842896 214.628494,142.624603 204.162674,150.842957 
    C202.138779,152.432236 200.561737,155.610321 200.263596,158.224854 
    C195.694061,198.297913 148.912277,220.238434 115.249283,197.946091 
    C114.043678,197.147736 112.962845,196.160934 111.834961,195.270721 
    C116.777740,188.616287 126.148911,185.302002 133.671204,187.306427 
    C159.318176,194.140442 181.278870,178.333374 183.129547,152.015350 
    C183.290726,149.723343 185.363586,146.722061 187.409088,145.542099 
    C201.514877,137.405121 215.853409,129.671875 230.105331,121.787521 
    C231.805084,120.847191 233.433685,119.778267 235.095276,118.768936 
    C234.913849,118.390938 234.732422,118.012932 234.550995,117.634933 
    C227.548752,120.638046 220.288345,123.156898 213.588974,126.728188 
    C184.737503,142.108353 156.109253,157.906754 127.283943,173.336609 
    C106.970833,184.209991 85.813538,193.003571 63.048908,197.348434 
    C60.705059,197.795792 58.154072,197.157928 55.364803,196.810654 
    z"/>

    <path fill="rgba(3, 3, 3, 1)" d="
    M178.092499,137.699646 
    C165.446030,144.820053 153.343124,152.145798 140.722443,158.431961 
    C133.088394,162.234344 124.721901,164.646606 116.544495,167.242462 
    C112.674385,168.470993 110.249817,166.650436 109.018623,162.363846 
    C103.684471,143.792191 112.874573,124.106308 130.682465,116.647736 
    C148.514282,109.179153 169.007889,116.359512 178.247559,133.436798 
    C178.822662,134.499725 178.384583,136.110840 178.092499,137.699646 
    z"/>
</g>
</svg>